<svg viewBox="0 0 512 512" xmlns="http://www.w3.org/2000/svg">
  <path d="M256 0c141.4 0 256 114.6 256 256S397.4 512 256 512 0 397.4 0 256 114.6 0 256 0zm-24 168c0-13.3-10.7-24-24-24s-24 10.7-24 24 10.7 24 24 24 24-10.7 24-24zm0 88c0-13.3-10.7-24-24-24s-24 10.7-24 24 10.7 24 24 24 24-10.7 24-24zm120-88c0-13.3-10.7-24-24-24s-24 10.7-24 24 10.7 24 24 24 24-10.7 24-24zm0 88c0-13.3-10.7-24-24-24s-24 10.7-24 24 10.7 24 24 24 24-10.7 24-24zm-120 88c0-13.3-10.7-24-24-24s-24 10.7-24 24 10.7 24 24 24 24-10.7 24-24zm120 0c0-13.3-10.7-24-24-24s-24 10.7-24 24 10.7 24 24 24 24-10.7 24-24z" fill="#007396"/>
</svg>
