<svg viewBox="0 0 512 512" xmlns="http://www.w3.org/2000/svg">
  <path d="M418.2 157.2c19.4-33.7 20-65.5 1.7-83.7-18.2-18.2-50-17.7-83.7 1.7-16 9.2-33.4 22.3-51.2 38.6-21-6.1-42.8-9.4-65-9.4s-44 3.3-65 9.4c-17.8-16.3-35.2-29.4-51.2-38.6-33.7-19.4-65.5-20-83.7-1.7-18.2 18.2-17.7 50 1.7 83.7 9.2 16 22.3 33.4 38.6 51.2-6.1 21-9.4 42.8-9.4 65s3.3 44 9.4 65c-16.3 17.8-29.4 35.2-38.6 51.2-19.4 33.7-20 65.5-1.7 83.7 9.1 9.1 21.6 13.7 36.8 13.7 17 0 37.1-5.7 58.6-18.1 16-9.2 33.4-22.3 51.2-38.6 21 6.1 42.8 9.4 65 9.4s44-3.3 65-9.4c17.8 16.3 35.2 29.4 51.2 38.6 21.5 12.4 41.6 18.1 58.6 18.1 15.2 0 27.7-4.6 36.8-13.7 18.2-18.2 17.7-50-1.7-83.7-9.2-16-22.3-33.4-38.6-51.2 6.1-21 9.4-42.8 9.4-65s-3.3-44-9.4-65c16.3-17.8 29.4-35.2 38.6-51.2zm-162.2 98.8c-22.1 0-40-17.9-40-40s17.9-40 40-40 40 17.9 40 40-17.9 40-40 40z" fill="#00d8ff"/>
</svg>
